<svg width="20" height="19" viewBox="0 0 20 19" fill="none" xmlns="http://www.w3.org/2000/svg">
<path d="M1.09927 9.9861L4.06757 12.1125L2.94029 15.5369C2.75811 16.068 2.7558 16.6427 2.93371 17.1752C3.11161 17.7077 3.46019 18.1695 3.9275 18.4919C4.38679 18.8245 4.94338 19.0028 5.51433 19C6.08528 18.9972 6.64002 18.8135 7.0959 18.4763L9.99833 16.381L12.9016 18.4739C13.3601 18.8046 13.9136 18.9843 14.4828 18.987C15.0519 18.9898 15.6072 18.8154 16.069 18.489C16.5307 18.1626 16.875 17.701 17.0524 17.1706C17.2299 16.6401 17.2312 16.0682 17.0564 15.5369L15.9291 12.1125L18.8974 9.9861C19.3553 9.65773 19.6956 9.19584 19.8699 8.66639C20.0441 8.13694 20.0434 7.56701 19.8677 7.03802C19.692 6.50903 19.3503 6.04803 18.8916 5.72087C18.4328 5.39371 17.8804 5.21712 17.3132 5.21633H13.667L12.5606 1.83365C12.3866 1.30119 12.0447 0.836694 11.5842 0.507138C11.1237 0.177582 10.5684 0 9.99833 0C9.4283 0 8.87299 0.177582 8.41249 0.507138C7.95198 0.836694 7.61008 1.30119 7.43609 1.83365L6.32965 5.21633H2.68681C2.11962 5.21712 1.56719 5.39371 1.10843 5.72087C0.649667 6.04803 0.30804 6.50903 0.132344 7.03802C-0.0433522 7.56701 -0.0441299 8.13694 0.130122 8.66639C0.304374 9.19584 0.644742 9.65773 1.10261 9.9861H1.09927Z" fill="#A7A0A0"/>
</svg>
