<svg width="24" height="24" viewBox="0 0 24 24" fill="none" xmlns="http://www.w3.org/2000/svg">
<g clip-path="url(#clip0_448_6343)">
<path d="M1 5.99997H23C23.2652 5.99997 23.5196 5.89461 23.7071 5.70707C23.8946 5.51954 24 5.26518 24 4.99997C24 4.73475 23.8946 4.4804 23.7071 4.29286C23.5196 4.10533 23.2652 3.99997 23 3.99997H1C0.734784 3.99997 0.48043 4.10533 0.292893 4.29286C0.105357 4.4804 0 4.73475 0 4.99997C0 5.26518 0.105357 5.51954 0.292893 5.70707C0.48043 5.89461 0.734784 5.99997 1 5.99997Z" fill="#31496B"/>
<path d="M5 9C4.73478 9 4.48043 9.10536 4.29289 9.29289C4.10536 9.48043 4 9.73478 4 10C4 10.2652 4.10536 10.5196 4.29289 10.7071C4.48043 10.8946 4.73478 11 5 11H19C19.2652 11 19.5196 10.8946 19.7071 10.7071C19.8946 10.5196 20 10.2652 20 10C20 9.73478 19.8946 9.48043 19.7071 9.29289C19.5196 9.10536 19.2652 9 19 9H5Z" fill="#31496B"/>
<path d="M19 19H5C4.73478 19 4.48043 19.1053 4.29289 19.2929C4.10536 19.4804 4 19.7348 4 20C4 20.2652 4.10536 20.5195 4.29289 20.7071C4.48043 20.8946 4.73478 21 5 21H19C19.2652 21 19.5196 20.8946 19.7071 20.7071C19.8946 20.5195 20 20.2652 20 20C20 19.7348 19.8946 19.4804 19.7071 19.2929C19.5196 19.1053 19.2652 19 19 19Z" fill="#31496B"/>
<path d="M23 14H1C0.734784 14 0.48043 14.1054 0.292893 14.2929C0.105357 14.4805 0 14.7348 0 15C0 15.2653 0.105357 15.5196 0.292893 15.7071C0.48043 15.8947 0.734784 16 1 16H23C23.2652 16 23.5196 15.8947 23.7071 15.7071C23.8946 15.5196 24 15.2653 24 15C24 14.7348 23.8946 14.4805 23.7071 14.2929C23.5196 14.1054 23.2652 14 23 14Z" fill="#31496B"/>
</g>
<defs>
<clipPath id="clip0_448_6343">
<rect width="24" height="24" fill="white"/>
</clipPath>
</defs>
</svg>
