<svg width="32" height="32" viewBox="0 0 32 32" fill="none" xmlns="http://www.w3.org/2000/svg">
<rect width="32" height="32" rx="16" fill="#f79226"/>
<path d="M23.7548 22.394L20.1277 18.7669C21.0009 17.6043 21.4723 16.1893 21.4707 14.7354C21.4707 11.0215 18.4492 8 14.7354 8C11.0215 8 8 11.0215 8 14.7354C8 18.4492 11.0215 21.4707 14.7354 21.4707C16.1893 21.4723 17.6043 21.0009 18.7669 20.1277L22.394 23.7548C22.5776 23.9189 22.8171 24.0065 23.0632 23.9996C23.3094 23.9927 23.5436 23.8919 23.7177 23.7177C23.8919 23.5436 23.9927 23.3094 23.9996 23.0632C24.0065 22.8171 23.9189 22.5776 23.7548 22.394ZM9.92439 14.7354C9.92439 13.7838 10.2065 12.8537 10.7352 12.0625C11.2638 11.2714 12.0152 10.6547 12.8943 10.2906C13.7734 9.92647 14.7407 9.8312 15.6739 10.0168C16.6072 10.2025 17.4644 10.6607 18.1372 11.3335C18.8101 12.0063 19.2683 12.8635 19.4539 13.7968C19.6395 14.73 19.5442 15.6973 19.1801 16.5764C18.816 17.4555 18.1994 18.2069 17.4082 18.7355C16.617 19.2642 15.6869 19.5463 14.7354 19.5463C13.4599 19.5448 12.2371 19.0374 11.3352 18.1355C10.4333 17.2336 9.92592 16.0108 9.92439 14.7354Z" fill="white"/>
</svg>
