<svg width="96" height="16" viewBox="0 0 96 16" fill="none" xmlns="http://www.w3.org/2000/svg">
<path d="M12.3704 16C12.1803 16 11.9911 15.939 11.8283 15.8175L8.0001 12.9478L4.17188 15.8175C4.01327 15.9368 3.82266 16.0006 3.62727 15.9999C3.43188 15.9992 3.2417 15.934 3.08388 15.8136C2.92592 15.6938 2.80809 15.5251 2.74718 15.3313C2.68626 15.1376 2.68536 14.9287 2.74459 14.7343L4.17235 9.91764L0.378477 7.12315C0.221245 7.00185 0.104476 6.83195 0.0446854 6.63749C-0.0151049 6.44302 -0.0148893 6.23382 0.0453015 6.03949C0.105967 5.84562 0.223384 5.67659 0.380957 5.55628C0.538529 5.43597 0.728289 5.37047 0.923416 5.36903L5.62222 5.36165L7.11822 0.66448C7.17996 0.470978 7.29837 0.302683 7.45668 0.183427C7.615 0.0641718 7.80519 0 8.00033 0C8.19547 0 8.38567 0.0641718 8.54398 0.183427C8.7023 0.302683 8.82071 0.470978 8.88245 0.66448L10.353 5.36165L15.0758 5.36903C15.2712 5.37018 15.4612 5.43565 15.619 5.55614C15.7767 5.67663 15.8941 5.84601 15.9545 6.04022C16.0149 6.23444 16.0152 6.4436 15.9554 6.638C15.8955 6.8324 15.7786 7.00215 15.6212 7.12315L11.8274 9.91764L13.2551 14.7343C13.3145 14.9286 13.3137 15.1375 13.2529 15.3313C13.192 15.5251 13.0743 15.6938 12.9163 15.8136C12.758 15.9349 12.5668 16.0003 12.3704 16Z" fill="#FFAF5C"/>
<path d="M32.3704 16C32.1803 16 31.9911 15.939 31.8283 15.8175L28.0001 12.9478L24.1719 15.8175C24.0133 15.9368 23.8227 16.0006 23.6273 15.9999C23.4319 15.9992 23.2417 15.934 23.0839 15.8136C22.9259 15.6938 22.8081 15.5251 22.7472 15.3313C22.6863 15.1376 22.6854 14.9287 22.7446 14.7343L24.1723 9.91764L20.3785 7.12315C20.2212 7.00185 20.1045 6.83195 20.0447 6.63749C19.9849 6.44302 19.9851 6.23382 20.0453 6.03949C20.106 5.84562 20.2234 5.67659 20.381 5.55628C20.5385 5.43597 20.7283 5.37047 20.9234 5.36903L25.6222 5.36165L27.1182 0.66448C27.18 0.470978 27.2984 0.302683 27.4567 0.183427C27.615 0.0641718 27.8052 0 28.0003 0C28.1955 0 28.3857 0.0641718 28.544 0.183427C28.7023 0.302683 28.8207 0.470978 28.8824 0.66448L30.353 5.36165L35.0758 5.36903C35.2712 5.37018 35.4612 5.43565 35.619 5.55614C35.7767 5.67663 35.8941 5.84601 35.9545 6.04022C36.0149 6.23444 36.0152 6.4436 35.9554 6.638C35.8955 6.8324 35.7786 7.00215 35.6212 7.12315L31.8274 9.91764L33.2551 14.7343C33.3145 14.9286 33.3137 15.1375 33.2529 15.3313C33.192 15.5251 33.0743 15.6938 32.9163 15.8136C32.758 15.9349 32.5668 16.0003 32.3704 16Z" fill="#FFAF5C"/>
<path d="M52.3704 16C52.1803 16 51.9911 15.939 51.8283 15.8175L48.0001 12.9478L44.1719 15.8175C44.0133 15.9368 43.8227 16.0006 43.6273 15.9999C43.4319 15.9992 43.2417 15.934 43.0839 15.8136C42.9259 15.6938 42.8081 15.5251 42.7472 15.3313C42.6863 15.1376 42.6854 14.9287 42.7446 14.7343L44.1723 9.91764L40.3785 7.12315C40.2212 7.00185 40.1045 6.83195 40.0447 6.63749C39.9849 6.44302 39.9851 6.23382 40.0453 6.03949C40.106 5.84562 40.2234 5.67659 40.381 5.55628C40.5385 5.43597 40.7283 5.37047 40.9234 5.36903L45.6222 5.36165L47.1182 0.66448C47.18 0.470978 47.2984 0.302683 47.4567 0.183427C47.615 0.0641718 47.8052 0 48.0003 0C48.1955 0 48.3857 0.0641718 48.544 0.183427C48.7023 0.302683 48.8207 0.470978 48.8824 0.66448L50.353 5.36165L55.0758 5.36903C55.2712 5.37018 55.4612 5.43565 55.619 5.55614C55.7767 5.67663 55.8941 5.84601 55.9545 6.04022C56.0149 6.23444 56.0152 6.4436 55.9554 6.638C55.8955 6.8324 55.7786 7.00215 55.6212 7.12315L51.8274 9.91764L53.2551 14.7343C53.3145 14.9286 53.3137 15.1375 53.2529 15.3313C53.192 15.5251 53.0743 15.6938 52.9163 15.8136C52.758 15.9349 52.5668 16.0003 52.3704 16Z" fill="#FFAF5C"/>
<path d="M72.3704 16C72.1803 16 71.9911 15.939 71.8283 15.8175L68.0001 12.9478L64.1719 15.8175C64.0133 15.9368 63.8227 16.0006 63.6273 15.9999C63.4319 15.9992 63.2417 15.934 63.0839 15.8136C62.9259 15.6938 62.8081 15.5251 62.7472 15.3313C62.6863 15.1376 62.6854 14.9287 62.7446 14.7343L64.1723 9.91764L60.3785 7.12315C60.2212 7.00185 60.1045 6.83195 60.0447 6.63749C59.9849 6.44302 59.9851 6.23382 60.0453 6.03949C60.106 5.84562 60.2234 5.67659 60.381 5.55628C60.5385 5.43597 60.7283 5.37047 60.9234 5.36903L65.6222 5.36165L67.1182 0.66448C67.18 0.470978 67.2984 0.302683 67.4567 0.183427C67.615 0.0641718 67.8052 0 68.0003 0C68.1955 0 68.3857 0.0641718 68.544 0.183427C68.7023 0.302683 68.8207 0.470978 68.8824 0.66448L70.353 5.36165L75.0758 5.36903C75.2712 5.37018 75.4612 5.43565 75.619 5.55614C75.7767 5.67663 75.8941 5.84601 75.9545 6.04022C76.0149 6.23444 76.0152 6.4436 75.9554 6.638C75.8955 6.8324 75.7786 7.00215 75.6212 7.12315L71.8274 9.91764L73.2551 14.7343C73.3145 14.9286 73.3137 15.1375 73.2529 15.3313C73.192 15.5251 73.0743 15.6938 72.9163 15.8136C72.758 15.9349 72.5668 16.0003 72.3704 16Z" fill="#FFAF5C"/>
<path d="M92.3704 16C92.1803 16 91.9911 15.939 91.8283 15.8175L88.0001 12.9478L84.1719 15.8175C84.0133 15.9368 83.8227 16.0006 83.6273 15.9999C83.4319 15.9992 83.2417 15.934 83.0839 15.8136C82.9259 15.6938 82.8081 15.5251 82.7472 15.3313C82.6863 15.1376 82.6854 14.9287 82.7446 14.7343L84.1723 9.91764L80.3785 7.12315C80.2212 7.00185 80.1045 6.83196 80.0447 6.63749C79.9849 6.44302 79.9851 6.23382 80.0453 6.03949C80.106 5.84562 80.2234 5.67659 80.381 5.55628C80.5385 5.43597 80.7283 5.37047 80.9234 5.36903L85.6222 5.36165L87.1182 0.66448C87.18 0.470978 87.2984 0.302683 87.4567 0.183427C87.615 0.0641718 87.8052 0 88.0003 0C88.1955 0 88.3857 0.0641718 88.544 0.183427C88.7023 0.302683 88.8207 0.470978 88.8824 0.66448L90.353 5.36165L95.0758 5.36903C95.2712 5.37018 95.4612 5.43565 95.619 5.55614C95.7767 5.67663 95.8941 5.84601 95.9545 6.04022C96.0149 6.23444 96.0152 6.4436 95.9554 6.638C95.8955 6.8324 95.7786 7.00215 95.6212 7.12315L91.8274 9.91764L93.2551 14.7343C93.3145 14.9286 93.3137 15.1375 93.2529 15.3313C93.192 15.5251 93.0743 15.6938 92.9163 15.8136C92.758 15.9349 92.5668 16.0003 92.3704 16Z" fill="#F2F2F2"/>
</svg>
