<svg width="138" height="23" viewBox="0 0 138 23" fill="none" xmlns="http://www.w3.org/2000/svg">
<path d="M17.4957 0.832703C17.4126 1.66319 17.3573 2.49369 17.3296 3.29649C17.3019 4.0993 17.2742 4.70833 17.2742 5.12358C17.2742 5.59419 17.2742 6.03712 17.3019 6.45236C17.3296 6.86761 17.3296 7.22749 17.3573 7.532H16.6652C16.4714 6.03712 16.1946 4.84675 15.8624 3.98857C15.5302 3.1304 15.0596 2.49369 14.4229 2.10612C13.7862 1.71856 12.9003 1.52478 11.7376 1.52478H10.4365V18.6883C10.4365 19.4911 10.5196 20.1001 10.658 20.4877C10.7964 20.9029 11.1009 21.1521 11.5715 21.2905C12.0144 21.4289 12.6788 21.5119 13.537 21.5396V22.1487C12.9834 22.121 12.2636 22.0933 11.3777 22.0656C10.4919 22.0656 9.57834 22.0656 8.66479 22.0656C7.69589 22.0656 6.78235 22.0656 5.92417 22.0656C5.066 22.0656 4.37392 22.0933 3.84794 22.1487V21.5396C4.70612 21.5119 5.37051 21.4012 5.81344 21.2905C6.25637 21.1521 6.56088 20.9029 6.72698 20.4877C6.89308 20.0724 6.97613 19.4911 6.97613 18.6883V1.52478H5.64734C4.51234 1.52478 3.62648 1.71856 2.98977 2.10612C2.35306 2.49369 1.85476 3.10271 1.55025 3.98857C1.21805 4.84675 0.968907 6.03712 0.775125 7.532H0.110732C0.138415 7.22749 0.166098 6.86761 0.193781 6.45236C0.193781 6.03712 0.221464 5.59419 0.221464 5.12358C0.221464 4.70833 0.193781 4.0993 0.166098 3.29649C0.138415 2.49369 0.0830492 1.66319 0 0.832703C0.858175 0.860386 1.7994 0.860386 2.82367 0.888069C3.84794 0.915752 4.87222 0.915752 5.92417 0.915752C6.97613 0.915752 7.91735 0.915752 8.74784 0.915752C9.57834 0.915752 10.5196 0.915752 11.5438 0.915752C12.5681 0.915752 13.5924 0.915752 14.6443 0.888069C15.724 0.860386 16.6652 0.860386 17.4957 0.832703Z" fill="#31496B"/>
<path d="M52.5979 0.832703C52.5149 1.66319 52.4595 2.49369 52.4318 3.29649C52.4041 4.0993 52.3765 4.70833 52.3765 5.12358C52.3765 5.59419 52.3765 6.03712 52.4042 6.45236C52.4318 6.86761 52.4318 7.22749 52.4595 7.532H51.7674C51.5737 6.03712 51.2968 4.84675 50.9646 3.98857C50.6324 3.1304 50.1618 2.49369 49.5251 2.10612C48.8884 1.71856 48.0025 1.52478 46.8399 1.52478H45.5388V18.6883C45.5388 19.4911 45.6218 20.1001 45.7602 20.4877C45.8986 20.9029 46.2031 21.1521 46.6738 21.2905C47.1444 21.4289 47.7811 21.5119 48.6393 21.5396V22.1487C48.0856 22.121 47.3658 22.0933 46.48 22.0656C45.5941 22.0656 44.6806 22.0656 43.767 22.0656C42.7981 22.0656 41.8846 22.0656 41.0264 22.0656C40.1682 22.0656 39.4762 22.0933 38.9502 22.1487V21.5396C39.8084 21.5119 40.4728 21.4012 40.9157 21.2905C41.3586 21.1521 41.6631 20.9029 41.8292 20.4877C41.9953 20.0724 42.0784 19.4911 42.0784 18.6883V1.52478H40.7496C39.6146 1.52478 38.7287 1.71856 38.092 2.10612C37.4553 2.49369 36.957 3.10271 36.6525 3.98857C36.348 4.87443 36.0712 6.03712 35.8774 7.532H35.1853C35.213 7.22749 35.2407 6.86761 35.2683 6.45236C35.2683 6.03712 35.2683 5.59419 35.2683 5.12358C35.2683 4.70833 35.2683 4.0993 35.213 3.29649C35.1853 2.49369 35.1299 1.69088 35.0469 0.832703C35.905 0.860386 36.8463 0.860386 37.8705 0.888069C38.8948 0.915752 39.9191 0.915752 40.971 0.915752C42.023 0.915752 42.9642 0.915752 43.7947 0.915752C44.6252 0.915752 45.5664 0.915752 46.5907 0.915752C47.615 0.915752 48.6393 0.915752 49.6912 0.888069C50.7985 0.860386 51.7674 0.860386 52.5979 0.832703Z" fill="#31496B"/>
<path d="M54.6187 0.832703C55.0893 0.860386 55.6706 0.860386 56.4181 0.888069C57.1378 0.915752 57.8853 0.915752 58.605 0.915752C59.5739 0.915752 60.4875 0.915752 61.3733 0.888069C62.2592 0.860386 62.8682 0.860386 63.2281 0.860386C65.4704 0.860386 67.1591 1.30331 68.2664 2.18917C69.3737 3.07503 69.9274 4.21003 69.9274 5.59419C69.9274 6.28626 69.7613 7.00602 69.4291 7.6981C69.0969 8.39018 68.5709 9.02689 67.8235 9.58055C67.076 10.1342 66.1071 10.5771 64.8614 10.8817V10.937C66.55 11.1031 67.8788 11.4907 68.8477 12.0167C69.8166 12.5703 70.5087 13.207 70.8963 13.9545C71.3115 14.7019 71.5053 15.5047 71.5053 16.3075C71.5053 17.4979 71.2008 18.5222 70.5918 19.408C69.9827 20.2939 69.1246 20.9583 67.9896 21.4566C66.8546 21.9272 65.4981 22.1763 63.8925 22.1763C63.4495 22.1763 62.7852 22.1763 61.8993 22.121C61.0134 22.0933 59.9338 22.0656 58.6604 22.0656C57.8853 22.0656 57.1378 22.0656 56.4181 22.0656C55.6983 22.0656 55.0893 22.0933 54.6187 22.1487V21.5396C55.3107 21.5119 55.809 21.4289 56.1412 21.2905C56.4734 21.1797 56.6949 20.9306 56.8333 20.5707C56.944 20.2108 56.9994 19.6572 56.9994 18.9374V3.98857C56.9994 3.24113 56.944 2.68747 56.8333 2.35527C56.7226 2.02307 56.4734 1.77393 56.1412 1.63551C55.809 1.4971 55.3107 1.44173 54.6463 1.41405V0.832703H54.6187ZM62.5637 1.44173C61.6778 1.44173 61.0965 1.60783 60.8473 1.96771C60.5982 2.2999 60.4598 2.99198 60.4598 4.04394V18.9928C60.4598 19.6849 60.5151 20.2385 60.6259 20.5984C60.7366 20.9583 60.9581 21.2074 61.2626 21.3182C61.5671 21.4289 62.0377 21.4843 62.6467 21.4843C64.4461 21.4843 65.7749 21.0413 66.5777 20.1001C67.3805 19.1866 67.7958 17.8855 67.7958 16.1968C67.7958 14.6465 67.3805 13.4562 66.5777 12.598C65.7749 11.7675 64.4185 11.3246 62.5637 11.3246H59.6293V10.7986H62.2315C63.3388 10.7986 64.197 10.5771 64.806 10.1065C65.415 9.63591 65.8303 9.05457 66.0518 8.30713C66.2732 7.55968 66.3839 6.75688 66.3839 5.87102C66.3839 4.37613 66.0794 3.26881 65.4981 2.52137C64.8891 1.80161 63.9202 1.44173 62.5637 1.44173Z" fill="#31496B"/>
<path d="M81.9142 0.832703V1.44173C81.2499 1.46941 80.7516 1.55246 80.4194 1.66319C80.0872 1.80161 79.838 2.02307 79.7273 2.38295C79.6166 2.74283 79.5335 3.29649 79.5335 4.01625V18.9651C79.5335 19.6849 79.5889 20.2385 79.7273 20.5984C79.8657 20.9583 80.0872 21.2074 80.4194 21.3182C80.7516 21.4289 81.2499 21.5119 81.9142 21.5673V22.1763C81.4436 22.1487 80.8346 22.121 80.0872 22.0933C79.3674 22.0933 78.62 22.0933 77.8448 22.0933C77.0143 22.0933 76.2115 22.0933 75.4918 22.0933C74.7443 22.0933 74.163 22.121 73.6924 22.1763V21.5673C74.3845 21.5396 74.8828 21.4566 75.215 21.3182C75.5471 21.2074 75.7686 20.9583 75.907 20.5984C76.0178 20.2385 76.0731 19.6849 76.0731 18.9651V4.01625C76.0731 3.26881 76.0178 2.71515 75.8793 2.38295C75.7686 2.02307 75.5195 1.80161 75.1873 1.66319C74.8551 1.52478 74.3568 1.46941 73.6924 1.44173V0.832703C74.163 0.860386 74.7443 0.860386 75.4918 0.888069C76.2115 0.915752 77.0143 0.915752 77.8448 0.915752C78.62 0.915752 79.3674 0.915752 80.0872 0.888069C80.8346 0.860386 81.4436 0.860386 81.9142 0.832703Z" fill="#31496B"/>
<path d="M92.5445 0.832703V1.44173C91.8524 1.46941 91.3541 1.55246 90.9942 1.66319C90.6343 1.80161 90.4129 2.02307 90.2745 2.38295C90.136 2.74283 90.0807 3.29649 90.0807 4.01625V19.0758C90.0807 19.7679 90.136 20.2662 90.2468 20.5984C90.3575 20.9306 90.579 21.1521 90.9112 21.2905C91.2434 21.4012 91.714 21.4566 92.3507 21.4566H94.3162C95.1744 21.4566 95.9218 21.3458 96.5031 21.0967C97.0845 20.8476 97.5828 20.4877 97.998 20.0171C98.4133 19.5464 98.7178 18.9097 98.9393 18.1346C99.1607 17.3595 99.3268 16.4736 99.4376 15.4494H100.13C100.074 16.0861 100.047 16.9442 100.047 17.9685C100.047 18.3838 100.047 18.9651 100.102 19.7402C100.13 20.5154 100.185 21.3182 100.268 22.121C99.2438 22.0933 98.0811 22.0656 96.8077 22.0379C95.5342 22.0379 94.3715 22.0379 93.375 22.0379C92.9043 22.0379 92.323 22.0379 91.6032 22.0379C90.8835 22.0379 90.1084 22.0379 89.2779 22.0379C88.4474 22.0379 87.5892 22.0656 86.7587 22.0656C85.9005 22.0656 85.0977 22.0933 84.2949 22.121V21.5119C84.987 21.4843 85.4853 21.4012 85.8175 21.2628C86.1497 21.1521 86.3712 20.9029 86.5096 20.543C86.6203 20.1832 86.6757 19.6295 86.6757 18.9097V3.96089C86.6757 3.21345 86.6203 2.65978 86.5096 2.32759C86.3988 1.96771 86.1774 1.74624 85.8175 1.60783C85.4576 1.46941 84.9593 1.41405 84.2949 1.38636V0.832703C84.7655 0.860386 85.3469 0.860386 86.0943 0.888069C86.8141 0.915752 87.6169 0.915752 88.4474 0.915752C89.2225 0.915752 89.97 0.915752 90.7174 0.888069C91.4648 0.860386 92.0739 0.860386 92.5445 0.832703Z" fill="#31496B"/>
<path d="M117.625 0.832703C117.542 1.60783 117.487 2.32759 117.459 3.04735C117.432 3.76711 117.404 4.29308 117.404 4.68065C117.404 5.06821 117.404 5.42809 117.432 5.76029C117.459 6.09248 117.459 6.397 117.487 6.59078H116.823C116.684 5.31736 116.463 4.29308 116.186 3.54564C115.909 2.7982 115.466 2.27222 114.885 1.96771C114.303 1.66319 113.501 1.4971 112.476 1.4971H110.4C109.763 1.4971 109.265 1.55246 108.933 1.66319C108.601 1.77393 108.379 1.99539 108.241 2.32759C108.102 2.65978 108.047 3.18576 108.047 3.87784V19.0758C108.047 19.7679 108.102 20.2662 108.241 20.5984C108.352 20.9306 108.601 21.1521 108.933 21.2905C109.265 21.4012 109.763 21.4566 110.4 21.4566H112.366C113.501 21.4566 114.414 21.2905 115.078 20.9029C115.743 20.5154 116.269 19.934 116.601 19.1312C116.961 18.3007 117.21 17.1934 117.404 15.7539H118.096C118.041 16.3352 118.013 17.1103 118.013 18.0516C118.013 18.4668 118.013 19.0481 118.068 19.7956C118.096 20.5707 118.151 21.3458 118.234 22.1487C117.21 22.121 116.047 22.0933 114.774 22.0656C113.501 22.0656 112.338 22.0656 111.341 22.0656C110.871 22.0656 110.289 22.0656 109.57 22.0656C108.85 22.0656 108.075 22.0656 107.244 22.0656C106.414 22.0656 105.556 22.0933 104.725 22.0933C103.867 22.0933 103.064 22.121 102.261 22.1487V21.5396C102.953 21.5119 103.452 21.4289 103.784 21.2905C104.116 21.1797 104.337 20.9306 104.476 20.5707C104.587 20.2108 104.642 19.6572 104.642 18.9374V3.98857C104.642 3.24113 104.587 2.68747 104.448 2.35527C104.337 1.99539 104.088 1.77393 103.756 1.63551C103.424 1.4971 102.926 1.44173 102.261 1.41405V0.832703C103.036 0.860386 103.867 0.860386 104.725 0.888069C105.583 0.888069 106.414 0.915752 107.244 0.915752C108.075 0.915752 108.85 0.915752 109.57 0.915752C110.289 0.915752 110.898 0.915752 111.341 0.915752C112.255 0.915752 113.307 0.915752 114.497 0.915752C115.66 0.888069 116.684 0.860386 117.625 0.832703ZM112.615 11.1308V11.7398H107.161V11.1308H112.615ZM113.501 7.14444C113.418 8.27944 113.39 9.1653 113.39 9.77433C113.39 10.3834 113.39 10.937 113.39 11.4353C113.39 11.9336 113.39 12.4873 113.418 13.0963C113.445 13.7053 113.501 14.5635 113.556 15.7262H112.864C112.753 15.0618 112.642 14.4251 112.476 13.8161C112.31 13.207 112.033 12.7087 111.618 12.3212C111.203 11.9336 110.566 11.7398 109.708 11.7398V11.1308C110.345 11.1308 110.871 10.9924 111.231 10.7432C111.59 10.4941 111.895 10.1342 112.089 9.71896C112.282 9.30372 112.449 8.86079 112.532 8.41786C112.615 7.97493 112.698 7.55968 112.781 7.17212L113.501 7.14444Z" fill="#31496B"/>
<path d="M138 0.832703C137.917 1.66319 137.862 2.49369 137.834 3.29649C137.806 4.0993 137.778 4.70833 137.778 5.12358C137.778 5.59419 137.778 6.03712 137.806 6.45236C137.834 6.86761 137.834 7.22749 137.862 7.532H137.169C136.976 6.03712 136.699 4.84675 136.367 3.98857C136.034 3.1304 135.564 2.49369 134.927 2.10612C134.29 1.71856 133.405 1.52478 132.242 1.52478H130.941V18.6883C130.941 19.4911 131.024 20.1001 131.162 20.4877C131.301 20.9029 131.605 21.1521 132.076 21.2905C132.519 21.4289 133.183 21.5119 134.041 21.5396V22.1487C133.488 22.121 132.768 22.0933 131.882 22.0656C130.996 22.0656 130.083 22.0656 129.169 22.0656C128.2 22.0656 127.287 22.0656 126.456 22.0656C125.598 22.0656 124.906 22.0933 124.38 22.1487V21.5396C125.238 21.5119 125.902 21.4012 126.345 21.2905C126.788 21.1521 127.093 20.9029 127.259 20.4877C127.425 20.0724 127.508 19.4911 127.508 18.6883V1.52478H126.179C125.044 1.52478 124.158 1.71856 123.522 2.10612C122.885 2.49369 122.387 3.10271 122.082 3.98857C121.778 4.87443 121.501 6.03712 121.307 7.532H120.615C120.643 7.22749 120.67 6.86761 120.698 6.45236C120.698 6.03712 120.698 5.59419 120.698 5.12358C120.698 4.70833 120.698 4.0993 120.643 3.29649C120.615 2.49369 120.56 1.69088 120.477 0.832703C121.335 0.860386 122.276 0.860386 123.3 0.888069C124.325 0.915752 125.349 0.915752 126.401 0.915752C127.453 0.915752 128.394 0.915752 129.224 0.915752C130.055 0.915752 130.996 0.915752 132.02 0.915752C133.045 0.915752 134.069 0.915752 135.121 0.888069C136.201 0.860386 137.142 0.860386 138 0.832703Z" fill="#31496B"/>
<path d="M28.4857 15.8646C27.8213 15.8646 27.1569 15.7815 26.5202 15.6431C25.4682 15.394 24.4716 14.9511 23.5581 14.3143L23.8903 13.8714C24.7208 14.4528 25.662 14.8957 26.6586 15.1172C27.9874 15.4217 29.3992 15.394 30.7557 15.0064L30.8941 15.5324C30.119 15.7539 29.3162 15.8646 28.4857 15.8646Z" fill="#31496B"/>
<path d="M24.4716 15.0895L24.1671 14.8126C23.4473 14.1759 22.6722 13.6223 21.7864 13.1793C21.0389 12.7918 20.2361 12.515 19.4056 12.3212L19.2949 12.2935L19.2395 12.1828C18.935 11.6014 18.6859 10.9924 18.5474 10.3834C18.2983 9.41445 18.2983 8.3625 18.4644 7.36591L18.4921 7.14444H18.7135C19.544 7.08908 20.3192 7.19981 21.0389 7.47664C23.2536 8.30713 24.8592 10.6048 24.8869 12.9579C24.8869 13.5392 24.8038 14.1206 24.61 14.6742L24.4716 15.0895ZM19.6548 11.8229C20.4853 12.0167 21.2604 12.3212 22.0355 12.6811C22.8106 13.0686 23.5304 13.5392 24.1948 14.0929C24.2778 13.7053 24.3332 13.3454 24.3332 12.9579C24.3055 10.8263 22.8383 8.75006 20.8451 8.00262C20.2638 7.78115 19.6271 7.67042 18.9627 7.6981C18.8243 8.55628 18.852 9.44213 19.0734 10.2726C19.2118 10.7986 19.4056 11.3246 19.6548 11.8229Z" fill="#31496B"/>
<path d="M20.2916 16.9996C18.769 16.9996 17.2188 16.4183 16.1391 15.3109C15.6132 14.7573 15.1979 14.1206 14.9211 13.3454L14.8657 13.1517L15.0041 13.0409C15.8069 12.3765 16.7205 11.9336 17.6894 11.7675C19.2673 11.4907 20.4854 12.0167 21.5097 12.4042L21.565 12.4319C22.6447 12.8748 23.6412 13.5115 24.5271 14.342L24.6932 14.5081L24.5548 14.7019C24.0565 15.4494 23.4752 16.003 22.7554 16.3906C22.0356 16.8335 21.1775 16.9996 20.2916 16.9996ZM15.5301 13.3731C15.7793 13.9822 16.1115 14.5081 16.5544 14.9511C18.1046 16.5013 20.6515 16.9442 22.5339 15.9477C23.0876 15.6431 23.5859 15.2002 24.0011 14.6466C23.226 13.9545 22.3401 13.4008 21.3989 13.0133L21.2882 12.9579C20.3193 12.5426 19.1843 12.0997 17.7724 12.3489C16.9973 12.4873 16.2222 12.8472 15.5301 13.3731Z" fill="#31496B"/>
<path d="M19.7102 20.5984C19.5441 20.2662 19.4887 19.7956 19.5718 19.1865C19.5995 18.9928 19.6271 18.799 19.6825 18.5775C19.6271 18.5775 19.5995 18.5775 19.5441 18.5775C19.5164 18.5775 19.461 18.5775 19.4334 18.5775C19.2396 18.5775 19.0458 18.5498 18.8797 18.5498L18.7967 18.7713C18.4091 19.7402 18.0215 20.4323 17.5786 20.8198C17.1633 21.2351 16.7204 21.4842 16.3052 21.5673V22.1763C16.6097 22.1486 16.9419 22.1209 17.3018 22.0933C17.6616 22.0933 18.1046 22.0933 18.5752 22.0933C19.1288 22.0933 19.6825 22.0933 20.3192 22.0933C20.9282 22.0933 21.5373 22.121 22.1463 22.1763V21.5673C21.5096 21.5396 21.0113 21.4566 20.5684 21.3181C20.1808 21.1797 19.8763 20.9306 19.7102 20.5984Z" fill="#31496B"/>
<path d="M23.6416 6.23092L23.3647 6.89531L23.9184 7.31055L24.2229 6.4247V5.73262L23.6416 6.23092Z" fill="#31496B"/>
<path d="M15.9732 12.9579L15.8348 12.7364C15.4749 12.0997 15.3642 11.4907 15.3365 11.4076C15.3088 11.2969 15.2811 11.1031 15.1981 10.7709L14.8936 9.27604L15.115 9.19299C15.3918 9.08226 15.6964 8.99921 15.9732 8.91616C17.0528 8.61165 17.9664 8.5286 18.2986 8.5286L18.6031 8.50092V8.80543C18.6031 9.33141 18.6585 9.85738 18.7969 10.3557C18.8799 10.6602 19.046 11.3246 19.4613 12.0443L19.7658 12.5703L19.1567 12.4596C18.6031 12.3489 18.0494 12.3489 17.4958 12.4596C17.0528 12.5426 16.6099 12.6811 16.167 12.9025L15.9732 12.9579ZM15.5579 9.60824L15.7517 10.6325C15.8071 10.9647 15.8625 11.1585 15.8901 11.2415V11.2692C15.8901 11.2692 15.9732 11.7121 16.2223 12.2104C16.6376 12.0443 17.0252 11.9059 17.4404 11.8506C17.8833 11.7675 18.2986 11.7675 18.7415 11.7952C18.4647 11.2139 18.3263 10.6879 18.2709 10.4387C18.1602 9.9958 18.0771 9.52519 18.0771 9.05458C17.6619 9.08226 16.9698 9.19299 16.167 9.41446C15.9455 9.49751 15.7517 9.55287 15.5579 9.60824Z" fill="#31496B"/>
<path d="M17.4682 12.1274C17.5513 12.0997 17.662 12.072 17.7451 12.072C18.3818 11.9613 18.9631 11.989 19.4891 12.072C19.0462 11.3523 18.8801 10.6602 18.797 10.3003C18.7693 10.2172 18.7693 10.1342 18.7417 10.0235C18.4925 10.0788 18.2434 10.1342 17.9942 10.2172C17.662 10.328 17.3852 10.4387 17.1914 10.4941C17.2191 10.6879 17.2745 10.937 17.3298 11.2692C17.3852 11.6845 17.4406 11.9613 17.4682 12.1274Z" fill="#31496B"/>
<path d="M19.7103 20.6538C19.5442 20.3216 19.4889 19.851 19.5719 19.2419C19.5996 18.9097 19.7103 18.5222 19.8211 18.1069L19.212 17.747L18.7968 18.8267C18.4092 19.7956 18.0217 20.4877 17.5787 20.8752C17.1635 21.2628 16.7483 21.5119 16.333 21.6227V22.2317C16.6375 22.204 16.9697 22.1763 17.3296 22.1486C17.6895 22.1486 18.1324 22.1486 18.603 22.1486C19.1567 22.1486 19.7103 22.1486 20.3471 22.1486C20.9561 22.1486 21.5651 22.1763 22.1741 22.2317V21.6227C21.5374 21.595 21.0391 21.5119 20.5962 21.3735C20.181 21.2351 19.8764 20.986 19.7103 20.6538Z" fill="#31496B"/>
<path d="M35.1299 21.2074C34.77 20.9583 34.4378 20.4323 34.161 19.7125L26.7973 0.777313C26.6312 0.777313 26.4651 0.777313 26.2713 0.777313C26.0776 0.777313 25.9115 0.777313 25.7454 0.777313L23.6138 6.28624L24.1951 6.48002L24.8318 4.81904L25.4409 6.48002L28.4029 14.4804L30.1193 19.0758C30.5345 20.1001 30.5899 20.7645 30.3131 21.069C30.0362 21.3735 29.3995 21.5673 28.3753 21.595V22.204C28.8182 22.1763 29.3995 22.1486 30.1193 22.1209C30.839 22.1209 31.6142 22.1209 32.4723 22.1209C33.1367 22.1209 33.8011 22.1209 34.4378 22.1209C35.1022 22.1209 35.6559 22.1486 36.1265 22.204V21.595C35.8497 21.595 35.5175 21.4566 35.1299 21.2074Z" fill="#31496B"/>
</svg>
