<svg width="1128" height="16" viewBox="0 0 1128 16" fill="none" xmlns="http://www.w3.org/2000/svg">
<path d="M14.8767 6.48001C14.697 5.85098 14.3998 5.37751 13.8675 4.84994C13.1417 4.13297 12.2085 3.74067 11.2062 3.74067L10.8814 3.74067L10.5634 3.1184C9.83066 1.66418 8.57951 0.656374 6.95508 0.189671C6.45739 0.0476308 6.17398 0.00704797 5.53803 0.000284135C4.70854 -0.00647971 3.86522 0.108505 3.74771 0.250545C3.59563 0.426404 3.45047 1.59654 3.49195 2.19852C3.53342 2.7261 3.69932 3.5107 3.83757 3.81507C3.87904 3.90977 3.80301 3.95711 3.4643 4.0721C2.14402 4.50498 0.906692 5.58043 0.250009 6.86555C-0.088701 7.53517 -0.0956134 7.46753 0.305309 8.25213C0.685493 8.98262 1.2454 9.62519 1.97812 10.1663C2.37904 10.4639 3.32605 10.9374 3.65785 11.0118C3.83757 11.0456 3.87904 11.0862 3.84448 11.1673C3.81683 11.235 3.73388 11.5123 3.65785 11.7896C3.48503 12.3983 3.4643 13.8255 3.61637 14.4207C3.70623 14.786 3.71315 14.7927 4.05185 14.8874C4.59103 15.043 6.27766 15.0362 6.8514 14.8739C8.60716 14.3801 10.0449 13.1627 10.7224 11.6137L10.8675 11.262L11.4689 11.235C12.1532 11.1944 12.5887 11.0659 13.1694 10.7209C13.992 10.2339 14.6556 9.3614 14.9044 8.43476C15.0426 7.92071 15.0288 6.99406 14.8767 6.48001ZM11.3307 8.31977C11.0403 8.92851 10.3145 9.42227 9.70624 9.42227C9.42283 9.42227 9.40209 9.4358 9.22928 9.77399C8.99426 10.2204 8.462 10.775 8.04034 10.9982C7.16937 11.4649 5.75923 11.5191 5.65554 11.0929C5.51729 10.5451 5.54494 9.89574 5.72467 9.44933C5.74541 9.40198 5.55877 9.27347 5.28918 9.14495C4.72236 8.88793 4.19702 8.39417 3.92052 7.86659L3.72006 7.49459L3.91361 7.12934C4.17628 6.61529 4.75001 6.08095 5.2961 5.82392C5.58642 5.69541 5.73849 5.58719 5.71776 5.53308C5.70393 5.48573 5.64863 5.26253 5.60716 5.03932C5.51729 4.60644 5.60024 3.85566 5.74541 3.71362C5.79379 3.66627 6.12559 3.63921 6.56107 3.63921C7.25232 3.63921 7.33527 3.65274 7.77075 3.85566C8.3514 4.12621 8.91131 4.63349 9.1878 5.15431C9.38827 5.51955 9.42283 5.54661 9.65785 5.55337C11.0403 5.60748 11.932 7.07523 11.3307 8.31977Z" fill="#4FADA0"/>
<rect x="24" y="7.5" width="524" height="1" rx="0.5" fill="#4FADA0"/>
<path d="M562.299 0.23166C561.985 0.484368 561.594 0.989785 561.454 1.34077C561.391 1.4952 561.336 1.53732 561.252 1.50222C560.693 1.26355 559.541 1.19336 559.338 1.39693C559.282 1.45308 559.296 1.59348 559.415 1.94446C559.639 2.64643 560.03 3.26416 560.616 3.86785C561.028 4.28903 561.28 4.46452 561.797 4.72425C562.153 4.90676 562.488 5.05418 562.544 5.05418C562.67 5.05418 562.67 5.07524 562.502 5.42622C562.39 5.66489 562.383 5.68595 562.481 5.55257C562.788 5.12437 562.788 5.12437 563.158 5.20159C563.452 5.27179 563.487 5.29285 563.368 5.35602C562.998 5.55257 562.642 6.07203 562.642 6.42301C562.642 6.54937 562.607 6.59851 562.502 6.59851C562.292 6.59851 561.866 6.78804 561.678 6.97055C561.245 7.37769 561.126 8.0586 561.391 8.61315C561.573 8.9852 561.873 9.23088 562.306 9.3432C562.6 9.42744 562.635 9.45551 562.67 9.68014C562.753 10.2277 563.284 10.705 563.878 10.7822C564.492 10.8594 565.142 10.4172 565.337 9.79246C565.449 9.43446 565.47 9.4134 565.777 9.33618C566.217 9.22386 566.65 8.76759 566.748 8.32535C566.916 7.53914 566.406 6.7389 565.68 6.61957C565.477 6.58447 565.442 6.54937 565.372 6.28262C565.288 5.94568 565.023 5.58767 564.709 5.39814L564.506 5.27179L564.779 5.22967C564.925 5.20159 565.107 5.16649 565.177 5.14543C565.24 5.13139 565.295 5.13841 565.295 5.17351C565.295 5.20159 565.379 5.32093 565.477 5.44026L565.652 5.65085L565.54 5.42622C565.484 5.29987 565.435 5.17351 565.435 5.13139C565.435 5.0963 565.589 5.01206 565.784 4.94888C566.58 4.68213 567.579 3.84679 568.131 2.97635C568.431 2.50603 568.815 1.47414 568.724 1.38289C568.69 1.34779 568.417 1.30567 568.117 1.28461C567.67 1.25653 567.481 1.27759 567.118 1.39693C566.874 1.48116 566.671 1.54434 566.664 1.5303C566.518 1.18634 566.273 0.786215 566.092 0.568604C565.805 0.23868 565.4 -0.0280676 565.288 0.0421286C565.247 0.0702076 565.121 0.280798 565.016 0.519466C564.408 1.86724 564.408 3.37647 565.023 4.66108C565.093 4.81551 565.142 4.94888 565.128 4.96292C565.051 5.04014 564.311 5.19457 563.996 5.19457C563.619 5.19457 562.921 5.01908 562.921 4.9208C562.921 4.8857 562.998 4.68213 563.096 4.47154C563.64 3.2782 563.577 1.59348 562.949 0.329935C562.851 0.147424 562.739 1.04904e-05 562.683 1.04904e-05C562.635 1.04904e-05 562.46 0.105306 562.299 0.23166ZM562.132 2.19717C562.299 2.37968 562.523 2.70961 562.628 2.93424C562.788 3.28522 562.816 3.42561 562.816 4.05036C562.816 4.44347 562.795 4.78041 562.767 4.80849C562.683 4.89272 562.313 4.64002 561.999 4.28903C561.447 3.67832 561.189 2.9202 561.273 2.15505C561.294 1.93042 561.329 1.71281 561.357 1.67771C561.412 1.57944 561.776 1.81811 562.132 2.19717ZM566.734 1.93744C566.888 2.99039 566.469 4.05738 565.659 4.64002C565.254 4.93484 565.198 4.86465 565.198 4.08546C565.205 3.41157 565.344 2.94126 565.694 2.43584C565.882 2.16207 566.504 1.61454 566.622 1.61454C566.657 1.61454 566.706 1.76195 566.734 1.93744ZM564.45 6.67572L564.681 6.75996L564.436 7.01267C564.297 7.15306 564.143 7.37769 564.087 7.51106L563.989 7.75675L563.941 7.5251C563.913 7.39875 563.78 7.18114 563.647 7.04075C563.515 6.90737 563.41 6.774 563.41 6.75996C563.41 6.74592 563.48 6.7038 563.57 6.6687C563.787 6.58447 564.185 6.58447 564.45 6.67572ZM563.48 7.89013L563.724 7.9884L563.535 8.06562C563.431 8.10072 563.221 8.24813 563.075 8.3815L562.802 8.63421L562.725 8.4517C562.621 8.23409 562.621 7.79185 562.711 7.53914L562.788 7.34961L563.012 7.56722C563.137 7.68656 563.347 7.83397 563.48 7.89013ZM565.323 7.5251C565.386 7.78483 565.372 8.35343 565.288 8.50084C565.219 8.64123 565.212 8.63421 565.079 8.46574C565.009 8.37448 564.8 8.22707 564.625 8.14283L564.304 7.98138L564.576 7.86205C564.723 7.79185 564.918 7.65848 565.009 7.55318C565.219 7.32855 565.267 7.32855 565.323 7.5251ZM564.492 9.04135C564.59 9.11857 564.667 9.19579 564.667 9.21685C564.667 9.23088 564.527 9.28704 564.353 9.32916C564.066 9.39936 563.542 9.35022 563.431 9.2379C563.41 9.21685 563.501 9.07645 563.64 8.92202C563.78 8.76759 563.92 8.54998 563.941 8.4517C563.989 8.26217 563.989 8.26217 564.15 8.57805C564.241 8.76057 564.395 8.96414 564.492 9.04135Z" fill="#4FADA0"/>
<path d="M557.376 3.48878C557.278 4.08545 557.348 4.65404 557.578 5.2086C557.613 5.29985 557.557 5.35601 557.32 5.46131C557.152 5.53852 556.908 5.68594 556.775 5.78421C556.482 6.00884 556.077 6.50724 556.077 6.64763C556.077 6.78802 557.033 7.21622 557.599 7.34258C558.556 7.53913 559.708 7.42681 560.546 7.04775C560.777 6.94246 560.979 6.87226 560.986 6.8863C561 6.90034 561.049 6.99159 561.091 7.08987C561.168 7.25132 561.175 7.2443 561.14 6.99861C561.119 6.85822 561.126 6.73889 561.154 6.73889C561.182 6.73889 561.308 6.65465 561.419 6.55637L561.629 6.38088L561.405 6.4932C561.28 6.54936 561.154 6.59849 561.119 6.59849C561.091 6.59849 561.007 6.44406 560.937 6.25453C560.469 4.94185 559.198 3.7485 557.83 3.32732C557.404 3.20097 557.432 3.19395 557.376 3.48878ZM559.471 5.41217C559.68 5.48938 560.009 5.67892 560.197 5.83335C560.567 6.12817 560.951 6.64061 560.868 6.72485C560.84 6.75293 560.49 6.77398 560.099 6.77398C559.443 6.77398 559.359 6.75995 558.926 6.54234C558.451 6.31069 557.648 5.54554 557.704 5.37707C557.774 5.15946 558.849 5.18052 559.471 5.41217Z" fill="#4FADA0"/>
<path d="M570.1 3.36244C568.99 3.72044 567.859 4.69617 567.335 5.74913C567.174 6.07203 567.041 6.3809 567.041 6.43003C567.041 6.60553 566.846 6.61957 566.587 6.46513C566.252 6.26858 566.28 6.3458 566.629 6.57745C566.895 6.75294 566.909 6.774 566.874 7.04777L566.832 7.33557L566.944 7.10392C566.999 6.96353 567.083 6.87929 567.132 6.90737C567.719 7.1671 568.138 7.30749 568.536 7.37769C569.199 7.49001 570.31 7.41981 570.883 7.23028C571.378 7.06181 572 6.74592 572 6.66168C572 6.57043 571.455 5.9176 571.253 5.77018C571.148 5.69999 570.917 5.55959 570.743 5.47536L570.429 5.31391L570.289 5.51748C570.01 5.92462 569.5 6.37388 569.095 6.57043C568.718 6.75294 568.62 6.774 567.935 6.774C567.53 6.774 567.167 6.75294 567.139 6.72486C567.069 6.64764 567.537 6.07203 567.893 5.79124C568.396 5.39814 568.871 5.24371 569.556 5.25073C569.884 5.25073 570.212 5.26477 570.282 5.27881C570.568 5.32795 570.799 4.14864 570.645 3.45369C570.582 3.19396 570.617 3.20098 570.1 3.36244Z" fill="#4FADA0"/>
<path d="M558.067 8.56401C557.515 8.62719 556.908 8.8097 556.412 9.06241L556 9.273L556.126 9.48359C556.314 9.8065 556.852 10.2838 557.257 10.4874L557.613 10.6699L557.488 10.9718C557.355 11.3017 557.313 12.5793 557.439 12.6986C557.536 12.7828 558.354 12.5021 558.856 12.2002C559.729 11.6808 560.609 10.6278 560.938 9.72226C561 9.52571 561.07 9.35724 561.077 9.3432C561.091 9.32916 561.238 9.39936 561.412 9.49763C561.825 9.72928 561.825 9.68716 561.419 9.40638C561.203 9.25194 561.112 9.14665 561.133 9.06943C561.147 9.00625 561.182 8.83778 561.203 8.70441C561.238 8.4868 561.231 8.49382 561.133 8.77461C561.07 8.9501 561.007 9.09751 561 9.11155C560.993 9.11857 560.819 9.04837 560.609 8.95712C559.876 8.61315 558.891 8.46574 558.067 8.56401ZM560.533 9.18877C560.693 9.22386 560.847 9.26598 560.868 9.28704C560.931 9.35022 560.505 9.91179 560.232 10.1294C560.093 10.2417 559.806 10.4102 559.583 10.5155C559.234 10.684 559.101 10.705 558.472 10.705C558.081 10.705 557.739 10.684 557.711 10.6559C557.683 10.6278 557.753 10.4734 557.865 10.3119C558.444 9.46955 559.562 8.99923 560.533 9.18877Z" fill="#4FADA0"/>
<path d="M568.222 8.66929C568.005 8.72545 567.656 8.84479 567.432 8.94306L567.034 9.11855L566.979 8.96412C566.853 8.62016 566.839 8.61314 566.874 8.92902C566.909 9.20981 566.895 9.25895 566.776 9.29405C566.699 9.32212 566.58 9.40636 566.511 9.4906L566.378 9.63099L566.622 9.48358C566.755 9.40636 566.888 9.33616 566.909 9.33616C566.937 9.33616 567.02 9.51868 567.104 9.74331C567.481 10.7892 568.403 11.8071 569.437 12.3195C569.793 12.495 570.191 12.6565 570.331 12.6775C570.554 12.7196 570.596 12.6986 570.645 12.5582C570.729 12.2774 570.694 11.421 570.575 11.0911C570.429 10.6769 570.436 10.6208 570.624 10.5646C570.924 10.4734 571.511 10.0171 571.755 9.68715C571.888 9.50464 572 9.33616 572 9.30809C572 9.22385 571.155 8.84479 570.659 8.70439C570.058 8.53592 568.843 8.52188 568.222 8.66929ZM568.41 9.20279C568.634 9.24491 569.004 9.37828 569.227 9.49762C569.632 9.70821 570.324 10.3891 570.324 10.5646C570.324 10.8243 569.025 10.7892 568.417 10.5085C567.991 10.3119 567.432 9.82754 567.23 9.48358C567.09 9.24491 567.083 9.25193 567.6 9.17471C567.914 9.12557 567.991 9.12557 568.41 9.20279Z" fill="#4FADA0"/>
<path d="M565.442 10.5716C565.219 10.8805 565.198 10.8875 564.919 10.8524L564.632 10.8103L564.884 10.9156L565.135 11.0279L564.905 11.5965C564.514 12.5793 564.451 13.5761 564.716 14.629C564.835 15.1134 565.17 15.8926 565.289 15.9627C565.47 16.0751 566.246 15.331 566.49 14.8115C566.581 14.615 566.679 14.4605 566.7 14.4605C566.727 14.4605 566.881 14.5097 567.049 14.5729C567.384 14.6922 568.208 14.7343 568.536 14.6501C568.718 14.6009 568.732 14.5799 568.683 14.3342C568.55 13.5831 567.719 12.3476 566.972 11.779C566.588 11.4912 565.694 11.0209 565.526 11.0209C565.359 11.0209 565.359 10.8665 565.54 10.5646C565.771 10.1575 565.729 10.1645 565.442 10.5716ZM566.218 11.9054C566.567 12.3546 566.762 12.9583 566.762 13.541C566.762 14.1166 566.706 14.3201 566.567 14.3201C566.504 14.3201 566.246 14.1025 565.987 13.8428C565.414 13.2532 565.212 12.7828 565.198 12.0037C565.198 11.7158 565.219 11.3859 565.247 11.2806L565.303 11.0841L565.631 11.3157C565.813 11.4491 566.078 11.7088 566.218 11.9054Z" fill="#4FADA0"/>
<path d="M562.502 10.5646C562.663 10.8243 562.649 11.0209 562.474 11.0209C562.425 11.0209 562.118 11.1543 561.797 11.3157C560.714 11.8562 559.722 13.0355 559.387 14.1868C559.261 14.622 559.275 14.6431 559.841 14.6992C560.19 14.7413 560.7 14.6641 561.224 14.4956C561.35 14.4535 561.391 14.4956 561.51 14.7624C561.671 15.1344 562.132 15.6539 562.481 15.8715C562.614 15.9557 562.732 16.0119 562.739 15.9978C562.753 15.9838 562.858 15.7802 562.977 15.5416C563.354 14.7905 563.445 14.3763 563.438 13.3725C563.438 12.5161 563.424 12.4178 563.214 11.8282C563.089 11.4772 562.977 11.1543 562.97 11.0981C562.963 11.049 563.068 10.9577 563.2 10.9086L563.445 10.8173L563.123 10.8524C562.816 10.8945 562.802 10.8875 562.621 10.6067C562.39 10.2558 562.292 10.2207 562.502 10.5646ZM562.809 11.3789C563.012 12.3968 562.572 13.541 561.748 14.1376C561.454 14.3552 561.412 14.3693 561.35 14.264C561.231 14.0604 561.266 13.0566 561.405 12.6495C561.559 12.2142 561.943 11.6737 562.32 11.3789C562.663 11.1051 562.753 11.1051 562.809 11.3789Z" fill="#4FADA0"/>
<rect x="580" y="7.5" width="524" height="1" rx="0.5" fill="#4FADA0"/>
<path d="M1113.12 6.48001C1113.3 5.85098 1113.6 5.37751 1114.13 4.84994C1114.86 4.13297 1115.79 3.74067 1116.79 3.74067L1117.12 3.74067L1117.44 3.1184C1118.17 1.66418 1119.42 0.656374 1121.04 0.189671C1121.54 0.0476308 1121.83 0.00704797 1122.46 0.000284135C1123.29 -0.00647971 1124.13 0.108505 1124.25 0.250545C1124.4 0.426404 1124.55 1.59654 1124.51 2.19852C1124.47 2.7261 1124.3 3.5107 1124.16 3.81507C1124.12 3.90977 1124.2 3.95711 1124.54 4.0721C1125.86 4.50498 1127.09 5.58043 1127.75 6.86555C1128.09 7.53517 1128.1 7.46753 1127.69 8.25213C1127.31 8.98262 1126.75 9.62519 1126.02 10.1663C1125.62 10.4639 1124.67 10.9374 1124.34 11.0118C1124.16 11.0456 1124.12 11.0862 1124.16 11.1673C1124.18 11.235 1124.27 11.5123 1124.34 11.7896C1124.51 12.3983 1124.54 13.8255 1124.38 14.4207C1124.29 14.786 1124.29 14.7927 1123.95 14.8874C1123.41 15.043 1121.72 15.0362 1121.15 14.8739C1119.39 14.3801 1117.96 13.1627 1117.28 11.6137L1117.13 11.262L1116.53 11.235C1115.85 11.1944 1115.41 11.0659 1114.83 10.7209C1114.01 10.2339 1113.34 9.3614 1113.1 8.43476C1112.96 7.92071 1112.97 6.99406 1113.12 6.48001ZM1116.67 8.31977C1116.96 8.92851 1117.69 9.42227 1118.29 9.42227C1118.58 9.42227 1118.6 9.4358 1118.77 9.77399C1119.01 10.2204 1119.54 10.775 1119.96 10.9982C1120.83 11.4649 1122.24 11.5191 1122.34 11.0929C1122.48 10.5451 1122.46 9.89574 1122.28 9.44933C1122.25 9.40198 1122.44 9.27347 1122.71 9.14495C1123.28 8.88793 1123.8 8.39417 1124.08 7.86659L1124.28 7.49459L1124.09 7.12934C1123.82 6.61529 1123.25 6.08095 1122.7 5.82392C1122.41 5.69541 1122.26 5.58719 1122.28 5.53308C1122.3 5.48573 1122.35 5.26253 1122.39 5.03932C1122.48 4.60644 1122.4 3.85566 1122.25 3.71362C1122.21 3.66627 1121.87 3.63921 1121.44 3.63921C1120.75 3.63921 1120.66 3.65274 1120.23 3.85566C1119.65 4.12621 1119.09 4.63349 1118.81 5.15431C1118.61 5.51955 1118.58 5.54661 1118.34 5.55337C1116.96 5.60748 1116.07 7.07523 1116.67 8.31977Z" fill="#4FADA0"/>
</svg>
