<svg width="343" height="16" viewBox="0 0 343 16" fill="none" xmlns="http://www.w3.org/2000/svg">
<path d="M14.8767 6.48001C14.697 5.85098 14.3998 5.37751 13.8675 4.84994C13.1417 4.13297 12.2085 3.74067 11.2062 3.74067L10.8814 3.74067L10.5634 3.1184C9.83066 1.66418 8.57951 0.656374 6.95508 0.189671C6.45739 0.0476308 6.17398 0.00704797 5.53803 0.000284135C4.70854 -0.00647971 3.86522 0.108505 3.74771 0.250545C3.59563 0.426404 3.45047 1.59654 3.49195 2.19852C3.53342 2.7261 3.69932 3.5107 3.83757 3.81507C3.87904 3.90977 3.80301 3.95711 3.4643 4.0721C2.14402 4.50498 0.906692 5.58043 0.250009 6.86555C-0.088701 7.53517 -0.0956134 7.46753 0.305309 8.25213C0.685493 8.98262 1.2454 9.62519 1.97812 10.1663C2.37904 10.4639 3.32605 10.9374 3.65785 11.0118C3.83757 11.0456 3.87904 11.0862 3.84448 11.1673C3.81683 11.235 3.73388 11.5123 3.65785 11.7896C3.48503 12.3983 3.4643 13.8255 3.61637 14.4207C3.70623 14.786 3.71315 14.7927 4.05185 14.8874C4.59103 15.043 6.27766 15.0362 6.8514 14.8739C8.60716 14.3801 10.0449 13.1627 10.7224 11.6137L10.8675 11.262L11.4689 11.235C12.1532 11.1944 12.5887 11.0659 13.1694 10.7209C13.992 10.2339 14.6556 9.3614 14.9044 8.43476C15.0426 7.92071 15.0288 6.99406 14.8767 6.48001ZM11.3307 8.31977C11.0403 8.92851 10.3145 9.42227 9.70624 9.42227C9.42283 9.42227 9.40209 9.4358 9.22928 9.77399C8.99426 10.2204 8.462 10.775 8.04034 10.9982C7.16937 11.4649 5.75923 11.5191 5.65554 11.0929C5.51729 10.5451 5.54494 9.89574 5.72467 9.44933C5.74541 9.40198 5.55877 9.27347 5.28918 9.14495C4.72236 8.88793 4.19702 8.39417 3.92052 7.86659L3.72006 7.49459L3.91361 7.12934C4.17628 6.61529 4.75001 6.08095 5.2961 5.82392C5.58642 5.69541 5.73849 5.58719 5.71776 5.53308C5.70393 5.48573 5.64863 5.26253 5.60716 5.03932C5.51729 4.60644 5.60024 3.85566 5.74541 3.71362C5.79379 3.66627 6.12559 3.63921 6.56107 3.63921C7.25232 3.63921 7.33527 3.65274 7.77075 3.85566C8.3514 4.12621 8.91131 4.63349 9.1878 5.15431C9.38827 5.51955 9.42283 5.54661 9.65785 5.55337C11.0403 5.60748 11.932 7.07523 11.3307 8.31977Z" fill="#4FADA0"/>
<rect x="24" y="7.5" width="131.5" height="1" rx="0.5" fill="#4FADA0"/>
<path d="M169.799 0.23166C169.485 0.484368 169.094 0.989785 168.954 1.34077C168.891 1.4952 168.836 1.53732 168.752 1.50222C168.193 1.26355 167.041 1.19336 166.838 1.39693C166.782 1.45308 166.796 1.59348 166.915 1.94446C167.139 2.64643 167.53 3.26416 168.116 3.86785C168.528 4.28903 168.78 4.46452 169.297 4.72425C169.653 4.90676 169.988 5.05418 170.044 5.05418C170.17 5.05418 170.17 5.07524 170.002 5.42622C169.89 5.66489 169.883 5.68595 169.981 5.55257C170.288 5.12437 170.288 5.12437 170.658 5.20159C170.952 5.27179 170.987 5.29285 170.868 5.35602C170.498 5.55257 170.142 6.07203 170.142 6.42301C170.142 6.54937 170.107 6.59851 170.002 6.59851C169.792 6.59851 169.366 6.78804 169.178 6.97055C168.745 7.37769 168.626 8.0586 168.891 8.61315C169.073 8.9852 169.373 9.23088 169.806 9.3432C170.1 9.42744 170.135 9.45551 170.17 9.68014C170.253 10.2277 170.784 10.705 171.378 10.7822C171.992 10.8594 172.642 10.4172 172.837 9.79246C172.949 9.43446 172.97 9.4134 173.277 9.33618C173.717 9.22386 174.15 8.76759 174.248 8.32535C174.416 7.53914 173.906 6.7389 173.18 6.61957C172.977 6.58447 172.942 6.54937 172.872 6.28262C172.788 5.94568 172.523 5.58767 172.209 5.39814L172.006 5.27179L172.279 5.22967C172.425 5.20159 172.607 5.16649 172.677 5.14543C172.74 5.13139 172.795 5.13841 172.795 5.17351C172.795 5.20159 172.879 5.32093 172.977 5.44026L173.152 5.65085L173.04 5.42622C172.984 5.29987 172.935 5.17351 172.935 5.13139C172.935 5.0963 173.089 5.01206 173.284 4.94888C174.08 4.68213 175.079 3.84679 175.631 2.97635C175.931 2.50603 176.315 1.47414 176.224 1.38289C176.19 1.34779 175.917 1.30567 175.617 1.28461C175.17 1.25653 174.981 1.27759 174.618 1.39693C174.374 1.48116 174.171 1.54434 174.164 1.5303C174.018 1.18634 173.773 0.786215 173.592 0.568604C173.305 0.23868 172.9 -0.0280676 172.788 0.0421286C172.747 0.0702076 172.621 0.280798 172.516 0.519466C171.908 1.86724 171.908 3.37647 172.523 4.66108C172.593 4.81551 172.642 4.94888 172.628 4.96292C172.551 5.04014 171.811 5.19457 171.496 5.19457C171.119 5.19457 170.421 5.01908 170.421 4.9208C170.421 4.8857 170.498 4.68213 170.596 4.47154C171.14 3.2782 171.077 1.59348 170.449 0.329935C170.351 0.147424 170.239 1.04904e-05 170.183 1.04904e-05C170.135 1.04904e-05 169.96 0.105306 169.799 0.23166ZM169.632 2.19717C169.799 2.37968 170.023 2.70961 170.128 2.93424C170.288 3.28522 170.316 3.42561 170.316 4.05036C170.316 4.44347 170.295 4.78041 170.267 4.80849C170.183 4.89272 169.813 4.64002 169.499 4.28903C168.947 3.67832 168.689 2.9202 168.773 2.15505C168.794 1.93042 168.829 1.71281 168.857 1.67771C168.912 1.57944 169.276 1.81811 169.632 2.19717ZM174.234 1.93744C174.388 2.99039 173.969 4.05738 173.159 4.64002C172.754 4.93484 172.698 4.86465 172.698 4.08546C172.705 3.41157 172.844 2.94126 173.194 2.43584C173.382 2.16207 174.004 1.61454 174.122 1.61454C174.157 1.61454 174.206 1.76195 174.234 1.93744ZM171.95 6.67572L172.181 6.75996L171.936 7.01267C171.797 7.15306 171.643 7.37769 171.587 7.51106L171.489 7.75675L171.441 7.5251C171.413 7.39875 171.28 7.18114 171.147 7.04075C171.015 6.90737 170.91 6.774 170.91 6.75996C170.91 6.74592 170.98 6.7038 171.07 6.6687C171.287 6.58447 171.685 6.58447 171.95 6.67572ZM170.98 7.89013L171.224 7.9884L171.035 8.06562C170.931 8.10072 170.721 8.24813 170.575 8.3815L170.302 8.63421L170.225 8.4517C170.121 8.23409 170.121 7.79185 170.211 7.53914L170.288 7.34961L170.512 7.56722C170.637 7.68656 170.847 7.83397 170.98 7.89013ZM172.823 7.5251C172.886 7.78483 172.872 8.35343 172.788 8.50084C172.719 8.64123 172.712 8.63421 172.579 8.46574C172.509 8.37448 172.3 8.22707 172.125 8.14283L171.804 7.98138L172.076 7.86205C172.223 7.79185 172.418 7.65848 172.509 7.55318C172.719 7.32855 172.767 7.32855 172.823 7.5251ZM171.992 9.04135C172.09 9.11857 172.167 9.19579 172.167 9.21685C172.167 9.23088 172.027 9.28704 171.853 9.32916C171.566 9.39936 171.042 9.35022 170.931 9.2379C170.91 9.21685 171.001 9.07645 171.14 8.92202C171.28 8.76759 171.42 8.54998 171.441 8.4517C171.489 8.26217 171.489 8.26217 171.65 8.57805C171.741 8.76057 171.895 8.96414 171.992 9.04135Z" fill="#4FADA0"/>
<path d="M164.876 3.48878C164.778 4.08545 164.848 4.65404 165.079 5.2086C165.114 5.29985 165.058 5.35601 164.82 5.46131C164.653 5.53852 164.408 5.68594 164.276 5.78421C163.982 6.00884 163.577 6.50724 163.577 6.64763C163.577 6.78802 164.534 7.21622 165.1 7.34258C166.056 7.53913 167.209 7.42681 168.047 7.04775C168.277 6.94246 168.48 6.87226 168.487 6.8863C168.501 6.90034 168.55 6.99159 168.592 7.08987C168.668 7.25132 168.675 7.2443 168.64 6.99861C168.619 6.85822 168.626 6.73889 168.654 6.73889C168.682 6.73889 168.808 6.65465 168.92 6.55637L169.129 6.38088L168.906 6.4932C168.78 6.54936 168.654 6.59849 168.619 6.59849C168.592 6.59849 168.508 6.44406 168.438 6.25453C167.97 4.94185 166.699 3.7485 165.33 3.32732C164.904 3.20097 164.932 3.19395 164.876 3.48878ZM166.971 5.41217C167.181 5.48938 167.509 5.67892 167.698 5.83335C168.068 6.12817 168.452 6.64061 168.368 6.72485C168.34 6.75293 167.991 6.77398 167.6 6.77398C166.943 6.77398 166.86 6.75995 166.427 6.54234C165.952 6.31069 165.149 5.54554 165.204 5.37707C165.274 5.15946 166.35 5.18052 166.971 5.41217Z" fill="#4FADA0"/>
<path d="M177.6 3.36244C176.489 3.72044 175.358 4.69617 174.834 5.74913C174.674 6.07203 174.541 6.3809 174.541 6.43003C174.541 6.60553 174.345 6.61957 174.087 6.46513C173.752 6.26858 173.78 6.3458 174.129 6.57745C174.394 6.75294 174.408 6.774 174.373 7.04777L174.331 7.33557L174.443 7.10392C174.499 6.96353 174.583 6.87929 174.632 6.90737C175.218 7.1671 175.637 7.30749 176.035 7.37769C176.699 7.49001 177.809 7.41981 178.382 7.23028C178.878 7.06181 179.499 6.74592 179.499 6.66168C179.499 6.57043 178.955 5.9176 178.752 5.77018C178.647 5.69999 178.417 5.55959 178.242 5.47536L177.928 5.31391L177.788 5.51748C177.509 5.92462 176.999 6.37388 176.594 6.57043C176.217 6.75294 176.119 6.774 175.435 6.774C175.03 6.774 174.667 6.75294 174.639 6.72486C174.569 6.64764 175.037 6.07203 175.393 5.79124C175.896 5.39814 176.371 5.24371 177.055 5.25073C177.383 5.25073 177.712 5.26477 177.781 5.27881C178.068 5.32795 178.298 4.14864 178.145 3.45369C178.082 3.19396 178.117 3.20098 177.6 3.36244Z" fill="#4FADA0"/>
<path d="M165.567 8.56401C165.015 8.62719 164.408 8.8097 163.912 9.06241L163.5 9.273L163.626 9.48359C163.814 9.8065 164.352 10.2838 164.757 10.4874L165.113 10.6699L164.988 10.9718C164.855 11.3017 164.813 12.5793 164.939 12.6986C165.036 12.7828 165.854 12.5021 166.356 12.2002C167.229 11.6808 168.109 10.6278 168.438 9.72226C168.5 9.52571 168.57 9.35724 168.577 9.3432C168.591 9.32916 168.738 9.39936 168.912 9.49763C169.325 9.72928 169.325 9.68716 168.919 9.40638C168.703 9.25194 168.612 9.14665 168.633 9.06943C168.647 9.00625 168.682 8.83778 168.703 8.70441C168.738 8.4868 168.731 8.49382 168.633 8.77461C168.57 8.9501 168.507 9.09751 168.5 9.11155C168.493 9.11857 168.319 9.04837 168.109 8.95712C167.376 8.61315 166.391 8.46574 165.567 8.56401ZM168.033 9.18877C168.193 9.22386 168.347 9.26598 168.368 9.28704C168.431 9.35022 168.005 9.91179 167.732 10.1294C167.593 10.2417 167.306 10.4102 167.083 10.5155C166.734 10.684 166.601 10.705 165.972 10.705C165.581 10.705 165.239 10.684 165.211 10.6559C165.183 10.6278 165.253 10.4734 165.365 10.3119C165.944 9.46955 167.062 8.99923 168.033 9.18877Z" fill="#4FADA0"/>
<path d="M175.722 8.66929C175.505 8.72545 175.156 8.84479 174.932 8.94306L174.534 9.11855L174.479 8.96412C174.353 8.62016 174.339 8.61314 174.374 8.92902C174.409 9.20981 174.395 9.25895 174.276 9.29405C174.199 9.32212 174.08 9.40636 174.011 9.4906L173.878 9.63099L174.122 9.48358C174.255 9.40636 174.388 9.33616 174.409 9.33616C174.437 9.33616 174.52 9.51868 174.604 9.74331C174.981 10.7892 175.903 11.8071 176.937 12.3195C177.293 12.495 177.691 12.6565 177.831 12.6775C178.054 12.7196 178.096 12.6986 178.145 12.5582C178.229 12.2774 178.194 11.421 178.075 11.0911C177.929 10.6769 177.936 10.6208 178.124 10.5646C178.424 10.4734 179.011 10.0171 179.255 9.68715C179.388 9.50464 179.5 9.33616 179.5 9.30809C179.5 9.22385 178.655 8.84479 178.159 8.70439C177.558 8.53592 176.343 8.52188 175.722 8.66929ZM175.91 9.20279C176.134 9.24491 176.504 9.37828 176.727 9.49762C177.132 9.70821 177.824 10.3891 177.824 10.5646C177.824 10.8243 176.525 10.7892 175.917 10.5085C175.491 10.3119 174.932 9.82754 174.73 9.48358C174.59 9.24491 174.583 9.25193 175.1 9.17471C175.414 9.12557 175.491 9.12557 175.91 9.20279Z" fill="#4FADA0"/>
<path d="M172.942 10.5716C172.718 10.8805 172.697 10.8875 172.418 10.8524L172.132 10.8103L172.383 10.9156L172.635 11.0279L172.404 11.5965C172.013 12.5793 171.95 13.5761 172.216 14.629C172.334 15.1134 172.67 15.8926 172.788 15.9627C172.97 16.0751 173.745 15.331 173.99 14.8115C174.08 14.615 174.178 14.4605 174.199 14.4605C174.227 14.4605 174.381 14.5097 174.548 14.5729C174.883 14.6922 175.708 14.7343 176.036 14.6501C176.217 14.6009 176.231 14.5799 176.182 14.3342C176.05 13.5831 175.219 12.3476 174.471 11.779C174.087 11.4912 173.193 11.0209 173.026 11.0209C172.858 11.0209 172.858 10.8665 173.04 10.5646C173.27 10.1575 173.228 10.1645 172.942 10.5716ZM173.717 11.9054C174.066 12.3546 174.262 12.9583 174.262 13.541C174.262 14.1166 174.206 14.3201 174.066 14.3201C174.003 14.3201 173.745 14.1025 173.487 13.8428C172.914 13.2532 172.711 12.7828 172.697 12.0037C172.697 11.7158 172.718 11.3859 172.746 11.2806L172.802 11.0841L173.13 11.3157C173.312 11.4491 173.577 11.7088 173.717 11.9054Z" fill="#4FADA0"/>
<path d="M170.001 10.5646C170.162 10.8243 170.148 11.0209 169.973 11.0209C169.925 11.0209 169.617 11.1543 169.296 11.3157C168.214 11.8562 167.222 13.0355 166.887 14.1868C166.761 14.622 166.775 14.6431 167.341 14.6992C167.69 14.7413 168.2 14.6641 168.723 14.4956C168.849 14.4535 168.891 14.4956 169.01 14.7624C169.17 15.1344 169.631 15.6539 169.98 15.8715C170.113 15.9557 170.232 16.0119 170.239 15.9978C170.253 15.9838 170.358 15.7802 170.476 15.5416C170.853 14.7905 170.944 14.3763 170.937 13.3725C170.937 12.5161 170.923 12.4178 170.714 11.8282C170.588 11.4772 170.476 11.1543 170.469 11.0981C170.462 11.049 170.567 10.9577 170.7 10.9086L170.944 10.8173L170.623 10.8524C170.316 10.8945 170.302 10.8875 170.12 10.6067C169.89 10.2558 169.792 10.2207 170.001 10.5646ZM170.309 11.3789C170.511 12.3968 170.071 13.541 169.247 14.1376C168.954 14.3552 168.912 14.3693 168.849 14.264C168.73 14.0604 168.765 13.0566 168.905 12.6495C169.059 12.2142 169.443 11.6737 169.82 11.3789C170.162 11.1051 170.253 11.1051 170.309 11.3789Z" fill="#4FADA0"/>
<rect x="187.5" y="7.5" width="131.5" height="1" rx="0.5" fill="#4FADA0"/>
<path d="M328.123 6.48001C328.303 5.85098 328.6 5.37751 329.132 4.84994C329.858 4.13297 330.791 3.74067 331.794 3.74067L332.119 3.74067L332.437 3.1184C333.169 1.66418 334.42 0.656374 336.045 0.189671C336.543 0.0476308 336.826 0.00704797 337.462 0.000284135C338.291 -0.00647971 339.135 0.108505 339.252 0.250545C339.404 0.426404 339.55 1.59654 339.508 2.19852C339.467 2.7261 339.301 3.5107 339.162 3.81507C339.121 3.90977 339.197 3.95711 339.536 4.0721C340.856 4.50498 342.093 5.58043 342.75 6.86555C343.089 7.53517 343.096 7.46753 342.695 8.25213C342.315 8.98262 341.755 9.62519 341.022 10.1663C340.621 10.4639 339.674 10.9374 339.342 11.0118C339.162 11.0456 339.121 11.0862 339.156 11.1673C339.183 11.235 339.266 11.5123 339.342 11.7896C339.515 12.3983 339.536 13.8255 339.384 14.4207C339.294 14.786 339.287 14.7927 338.948 14.8874C338.409 15.043 336.722 15.0362 336.149 14.8739C334.393 14.3801 332.955 13.1627 332.278 11.6137L332.132 11.262L331.531 11.235C330.847 11.1944 330.411 11.0659 329.831 10.7209C329.008 10.2339 328.344 9.3614 328.096 8.43476C327.957 7.92071 327.971 6.99406 328.123 6.48001ZM331.669 8.31977C331.96 8.92851 332.685 9.42227 333.294 9.42227C333.577 9.42227 333.598 9.4358 333.771 9.77399C334.006 10.2204 334.538 10.775 334.96 10.9982C335.831 11.4649 337.241 11.5191 337.344 11.0929C337.483 10.5451 337.455 9.89574 337.275 9.44933C337.255 9.40198 337.441 9.27347 337.711 9.14495C338.278 8.88793 338.803 8.39417 339.079 7.86659L339.28 7.49459L339.086 7.12934C338.824 6.61529 338.25 6.08095 337.704 5.82392C337.414 5.69541 337.262 5.58719 337.282 5.53308C337.296 5.48573 337.351 5.26253 337.393 5.03932C337.483 4.60644 337.4 3.85566 337.255 3.71362C337.206 3.66627 336.874 3.63921 336.439 3.63921C335.748 3.63921 335.665 3.65274 335.229 3.85566C334.649 4.12621 334.089 4.63349 333.812 5.15431C333.612 5.51955 333.577 5.54661 333.342 5.55337C331.96 5.60748 331.068 7.07523 331.669 8.31977Z" fill="#4FADA0"/>
</svg>
