<svg width="32" height="32" viewBox="0 0 32 32" fill="none" xmlns="http://www.w3.org/2000/svg">
<path d="M16.0003 2.66602C8.64033 2.66602 2.66699 8.63935 2.66699 15.9993C2.66699 23.3593 8.64033 29.3327 16.0003 29.3327C23.3603 29.3327 29.3337 23.3593 29.3337 15.9993C29.3337 8.63935 23.3603 2.66602 16.0003 2.66602ZM22.187 11.7327C21.987 13.8393 21.1203 18.9593 20.6803 21.3193C20.4937 22.3193 20.1203 22.6527 19.7737 22.6927C19.0003 22.7593 18.4137 22.186 17.667 21.6927C16.4937 20.9193 15.827 20.4393 14.6937 19.6927C13.3737 18.826 14.227 18.346 14.987 17.5727C15.187 17.3727 18.6003 14.266 18.667 13.986C18.6763 13.9436 18.675 13.8996 18.6634 13.8578C18.6518 13.8159 18.6301 13.7776 18.6003 13.746C18.5203 13.6793 18.4137 13.706 18.3203 13.7193C18.2003 13.746 16.3337 14.986 12.6937 17.4393C12.1603 17.7993 11.6803 17.986 11.2537 17.9727C10.7737 17.9593 9.86699 17.706 9.18699 17.4793C8.34699 17.2127 7.69366 17.066 7.74699 16.5993C7.77366 16.3593 8.10699 16.1193 8.73366 15.866C12.627 14.1727 15.2137 13.0527 16.507 12.5193C20.2137 10.9727 20.9737 10.706 21.4803 10.706C21.587 10.706 21.8403 10.7327 22.0003 10.866C22.1337 10.9727 22.1737 11.1193 22.187 11.226C22.1737 11.306 22.2003 11.546 22.187 11.7327Z" fill="#31496B"/>
</svg>
