<svg width="32" height="32" viewBox="0 0 32 32" fill="none" xmlns="http://www.w3.org/2000/svg">
<path d="M20.0977 2.66602H11.9163C4.44433 2.66602 2.66699 4.44335 2.66699 11.902V20.0833C2.66699 27.554 4.43099 29.3327 11.903 29.3327H20.0843C27.555 29.3327 29.3337 27.5687 29.3337 20.0967V11.9153C29.3337 4.44335 27.5697 2.66602 20.0977 2.66602ZM24.195 21.6927H22.2497C21.5137 21.6927 21.2923 21.0967 19.9723 19.7767C18.8203 18.666 18.3337 18.5273 18.0417 18.5273C17.639 18.5273 17.5283 18.638 17.5283 19.194V20.9433C17.5283 21.4167 17.375 21.694 16.139 21.694C14.9395 21.6134 13.7762 21.249 12.7451 20.6307C11.714 20.0125 10.8446 19.1581 10.2083 18.138C8.69788 16.258 7.64691 14.0515 7.13899 11.694C7.13899 11.402 7.24966 11.138 7.80566 11.138H9.74966C10.2497 11.138 10.4297 11.3607 10.6257 11.874C11.5697 14.6527 13.1803 17.0687 13.8337 17.0687C14.0843 17.0687 14.1937 16.958 14.1937 16.3327V13.4713C14.111 12.166 13.4177 12.0553 13.4177 11.5833C13.4266 11.4589 13.4836 11.3427 13.5767 11.2596C13.6698 11.1764 13.7916 11.1328 13.9163 11.138H16.9723C17.3897 11.138 17.5283 11.346 17.5283 11.846V15.7073C17.5283 16.1247 17.7083 16.2633 17.8337 16.2633C18.0843 16.2633 18.2777 16.1247 18.7363 15.666C19.7215 14.4646 20.5264 13.1261 21.1257 11.6927C21.1869 11.5205 21.3028 11.3731 21.4557 11.2729C21.6086 11.1728 21.79 11.1254 21.9723 11.138H23.9177C24.5003 11.138 24.6243 11.43 24.5003 11.846C23.793 13.4306 22.9178 14.9347 21.8897 16.3327C21.6803 16.6527 21.5963 16.8193 21.8897 17.194C22.083 17.486 22.7643 18.0553 23.223 18.5967C23.8895 19.2615 24.443 20.0308 24.8617 20.874C25.0283 21.4153 24.7497 21.6927 24.195 21.6927Z" fill="#31496B"/>
</svg>
