<svg width="32" height="32" viewBox="0 0 32 32" fill="none" xmlns="http://www.w3.org/2000/svg">
<path d="M16.3257 5.33398C17.0377 5.33798 18.819 5.35532 20.7123 5.43132L21.3843 5.46065C23.2897 5.54998 25.1937 5.70465 26.139 5.96732C27.399 6.32198 28.3883 7.35398 28.723 8.66332C29.2563 10.7433 29.323 14.7993 29.331 15.782L29.3323 15.9847V16.2167C29.323 17.1993 29.2563 21.2567 28.723 23.3353C28.3843 24.6487 27.3937 25.682 26.139 26.0313C25.1937 26.294 23.2897 26.4487 21.3843 26.538L20.7123 26.5687C18.819 26.6433 17.0377 26.662 16.3257 26.6646L16.0123 26.666H15.6723C14.1657 26.6567 7.86433 26.5887 5.85899 26.0313C4.60033 25.6767 3.60966 24.6447 3.27499 23.3353C2.74166 21.2553 2.67499 17.1993 2.66699 16.2167V15.782C2.67499 14.7993 2.74166 10.742 3.27499 8.66332C3.61366 7.34998 4.60433 6.31665 5.86033 5.96865C7.86433 5.40998 14.167 5.34198 15.6737 5.33398H16.3257ZM13.3323 11.334V20.6673L21.3323 16.0007L13.3323 11.334Z" fill="#31496B"/>
</svg>
